<?xml version="1.0" standalone="no"?>
<!DOCTYPE svg PUBLIC "-//W3C//DTD SVG 20010904//EN"
 "http://www.w3.org/TR/2001/REC-SVG-20010904/DTD/svg10.dtd">
<svg version="1.0" xmlns="http://www.w3.org/2000/svg"
 width="512.000000pt" height="512.000000pt" viewBox="0 0 512.000000 512.000000"
 preserveAspectRatio="xMidYMid meet">
<metadata>
Created by potrace 1.16, written by Peter Selinger 2001-2019
</metadata>
<g transform="translate(0.000000,512.000000) scale(0.100000,-0.100000)"
fill="#000000" stroke="none">
<path d="M2255 4910 c-197 -17 -416 -57 -521 -93 -139 -50 -251 -137 -298
-232 -46 -95 -56 -186 -56 -532 l0 -313 590 0 590 0 0 -100 0 -100 -910 0
c-1020 0 -1003 1 -1158 -71 -189 -87 -322 -244 -391 -459 -35 -110 -80 -358
-92 -508 -14 -177 -1 -359 42 -576 38 -193 62 -271 116 -382 80 -167 207 -288
351 -336 62 -21 88 -22 370 -26 l302 -3 0 369 c0 420 5 456 80 601 81 155 195
265 355 342 139 68 151 69 800 69 648 0 664 2 795 67 93 47 201 151 248 240
18 34 41 96 52 139 19 73 20 113 20 700 0 413 -4 641 -11 676 -34 165 -167
326 -340 411 -99 49 -154 65 -327 98 -122 24 -436 33 -607 19z m-324 -472 c87
-26 151 -114 151 -208 -1 -59 -13 -89 -54 -135 -129 -148 -367 -58 -368 138 0
90 41 154 125 193 56 27 90 29 146 12z"/>
<path d="M3740 3416 c0 -179 -5 -360 -11 -403 -40 -293 -241 -527 -534 -624
-69 -23 -75 -23 -710 -29 -586 -5 -644 -7 -690 -24 -191 -70 -321 -199 -383
-383 l-27 -78 -3 -626 c-3 -690 -1 -715 58 -834 80 -162 269 -305 464 -350
230 -53 284 -60 511 -59 380 2 701 56 884 149 73 36 155 116 186 179 48 98 55
163 55 519 l0 327 -590 0 -590 0 0 100 0 99 938 4 c923 3 938 3 1014 25 205
57 362 186 458 377 44 88 88 245 123 445 31 181 31 492 -1 670 -67 370 -140
549 -284 691 -63 62 -171 121 -256 138 -31 6 -170 11 -332 11 l-280 0 0 -324z
m-572 -2549 c110 -72 128 -227 38 -325 -75 -84 -220 -86 -300 -6 -107 107 -78
275 59 349 48 25 152 17 203 -18z"/>
</g>
</svg>
